<svg width="22" height="22" viewBox="0 0 22 22" fill="none" xmlns="http://www.w3.org/2000/svg">
<path d="M21.9185 10.7396C21.7453 10.4875 17.5817 4.5832 11 4.5832C5.35228 4.5832 0.319697 10.4536 0.107944 10.7039C-0.0359609 10.8744 -0.0359609 11.1246 0.107944 11.2961C0.319697 11.5463 5.35228 17.4167 11 17.4167C16.6476 17.4167 21.6802 11.5463 21.8919 11.2961C22.0249 11.1384 22.0368 10.9101 21.9185 10.7396ZM11 16.5001C6.47249 16.5001 2.16773 12.1825 1.07415 11C2.16592 9.81658 6.46609 5.49991 11 5.49991C16.2974 5.49991 20.0366 9.81108 20.9496 10.9752C19.8954 12.1202 15.5659 16.5001 11 16.5001Z" fill="black"/>
<path d="M11 7.33325C8.97777 7.33325 7.33324 8.97777 7.33324 11C7.33324 13.0221 8.97777 14.6667 11 14.6667C13.0221 14.6667 14.6667 13.0221 14.6667 11C14.6667 8.97777 13.0221 7.33325 11 7.33325ZM11 13.75C9.48378 13.75 8.24991 12.5162 8.24991 11C8.24991 9.48382 9.48378 8.24996 11 8.24996C12.5161 8.24996 13.75 9.48382 13.75 11C13.75 12.5162 12.5161 13.75 11 13.75Z" fill="black"/>
</svg>
