<svg width="300" height="176" viewBox="0 0 300 176" fill="none" xmlns="http://www.w3.org/2000/svg">
<g clip-path="url(#clip0)">
<path d="M235.621 4.9306H235.621C228.447 4.9306 222.631 11.3862 222.631 19.3496V29.4672H225.742L227.544 25.7186L227.093 29.4672H247.09L248.728 26.0593L248.318 29.4672H250.57V21.5231C250.57 12.3593 243.877 4.9306 235.621 4.9306Z" fill="#2F2E41"/>
<path d="M159.053 176C236.896 176 300 171.764 300 166.538C300 161.312 236.896 157.075 159.053 157.075C81.2106 157.075 18.1066 161.312 18.1066 166.538C18.1066 171.764 81.2106 176 159.053 176Z" fill="#3F3D56"/>
<path d="M64.1011 163.164C64.0391 163.063 62.5764 160.62 62.0694 155.548C61.6043 150.894 61.9033 143.05 65.9705 132.109C73.6757 111.38 64.1948 94.6556 64.098 94.489L64.5657 94.2176C64.5903 94.2598 67.0367 98.524 68.4819 105.314C70.3915 114.316 69.6962 123.676 66.4774 132.297C58.7854 152.99 64.5039 162.786 64.5625 162.882L64.1011 163.164Z" fill="#3F3D56"/>
<path d="M61.0882 93.2719C63.0289 93.2719 64.6021 91.6984 64.6021 89.7573C64.6021 87.8162 63.0289 86.2427 61.0882 86.2427C59.1475 86.2427 57.5743 87.8162 57.5743 89.7573C57.5743 91.6984 59.1475 93.2719 61.0882 93.2719Z" fill="#3282FB"/>
<path d="M72.1706 106.249C74.1113 106.249 75.6845 104.675 75.6845 102.734C75.6845 100.793 74.1113 99.2197 72.1706 99.2197C70.2299 99.2197 68.6566 100.793 68.6566 102.734C68.6566 104.675 70.2299 106.249 72.1706 106.249Z" fill="#3F3D56"/>
<path d="M64.6021 114.9C66.5428 114.9 68.1161 113.327 68.1161 111.386C68.1161 109.445 66.5428 107.871 64.6021 107.871C62.6614 107.871 61.0882 109.445 61.0882 111.386C61.0882 113.327 62.6614 114.9 64.6021 114.9Z" fill="#3282FB"/>
<path d="M73.7924 122.2C75.7331 122.2 77.3063 120.626 77.3063 118.685C77.3063 116.744 75.7331 115.171 73.7924 115.171C71.8517 115.171 70.2785 116.744 70.2785 118.685C70.2785 120.626 71.8517 122.2 73.7924 122.2Z" fill="#3282FB"/>
<path d="M61.8991 133.555C63.8398 133.555 65.413 131.981 65.413 130.04C65.413 128.099 63.8398 126.525 61.8991 126.525C59.9584 126.525 58.3852 128.099 58.3852 130.04C58.3852 131.981 59.9584 133.555 61.8991 133.555Z" fill="#3F3D56"/>
<path d="M66.2239 163.293C66.2239 163.293 62.71 154.642 73.2518 148.154L66.2239 163.293Z" fill="#3F3D56"/>
<path d="M61.9024 163.136C61.9024 163.136 60.3031 153.937 47.9255 154.015L61.9024 163.136Z" fill="#3F3D56"/>
<path d="M229.351 23.1152C229.351 23.1152 233.406 32.5776 228 34.4701L233.406 52.3134L242.596 51.7727L245.029 45.8249L244.488 36.9032L243.677 30.9555C243.677 30.9555 238.001 32.3072 238.541 22.3042L229.351 23.1152Z" fill="#FFB8B8"/>
<path d="M227.189 34.1997C227.189 34.1997 218.269 33.3886 219.08 39.8771C219.89 46.3656 220.701 47.7174 220.701 47.7174L221.512 57.4501L216.647 60.424H212.052C212.052 60.424 197.996 63.6682 205.024 67.1828C212.052 70.6974 214.484 64.4793 214.484 64.4793C214.484 64.4793 227.459 64.4793 228.27 62.3164C229.081 60.1536 227.189 34.1997 227.189 34.1997Z" fill="#FFB8B8"/>
<path d="M244.488 31.4962C244.488 31.4962 252.867 28.5223 253.408 35.0108C253.949 41.4992 253.949 42.0399 253.949 42.0399L255.57 51.2319C255.57 51.2319 258.814 59.3425 258.814 61.7757C258.814 64.2089 261.247 71.7788 261.247 71.7788C261.247 71.7788 264.49 82.3226 260.976 82.0522C257.462 81.7819 256.922 70.6974 256.922 70.6974L249.624 56.0983L247.461 47.1766L244.488 31.4962Z" fill="#FFB8B8"/>
<path d="M228.54 33.1183H226.378L226.107 44.4731C226.107 44.4731 222.594 49.3395 226.918 53.6651L228 60.6943L247.732 59.8833L249.083 52.5837C249.083 52.5837 251.786 46.636 248.002 41.2289L244.488 30.1444H242.596C242.596 30.1444 246.978 46.3056 237.73 46.636C230.162 46.9063 228.54 33.1183 228.54 33.1183Z" fill="#3282FB"/>
<path d="M229.081 59.3426L227.459 64.7496C227.459 64.7496 193.671 159.914 203.943 162.347C214.214 164.78 228.54 168.025 229.892 165.591C231.243 163.158 238.271 92.0553 238.271 92.0553C238.271 92.0553 237.19 166.402 240.704 166.402C244.218 166.402 267.464 166.943 268.815 163.429C270.167 159.914 256.652 65.831 248.813 63.6682L246.65 58.8018L229.081 59.3426Z" fill="#2F2E41"/>
<path d="M248.543 56.639L227.189 57.4501C227.189 57.4501 226.214 64.7496 227.189 64.7496C227.459 64.7496 249.624 66.6421 249.353 63.3979C249.083 60.1536 248.543 56.639 248.543 56.639Z" fill="#3F3D56"/>
<path d="M138.124 108.141C138.125 113.891 136.504 119.525 133.448 124.394C130.391 129.264 126.022 133.172 120.844 135.669C120.841 135.669 120.841 135.669 120.838 135.671C119.91 136.12 118.959 136.519 117.989 136.869C117.835 136.929 117.679 136.983 117.519 137.034C117.195 137.15 116.865 137.256 116.533 137.356C115.849 137.567 115.155 137.753 114.451 137.915H114.448L114.43 137.921L114.386 137.929C114.294 137.95 114.2 137.972 114.105 137.991C113.581 138.107 113.051 138.207 112.516 138.291C110.884 138.559 109.234 138.693 107.58 138.691C106.694 138.691 105.812 138.653 104.945 138.578C104.898 138.576 104.851 138.571 104.804 138.564C102.425 138.349 100.079 137.856 97.8141 137.096C97.4789 136.983 97.1438 136.864 96.814 136.737C91.5977 134.772 87.0182 131.418 83.5715 127.037C80.1249 122.655 77.9424 117.414 77.2605 111.881C76.5786 106.348 77.4234 100.734 79.7032 95.6472C81.983 90.56 85.6109 86.1937 90.1942 83.0211C94.7774 79.8486 100.141 77.9908 105.704 77.6489C111.268 77.307 116.818 78.4941 121.756 81.0816C126.693 83.6692 130.828 87.5584 133.713 92.3282C136.598 97.098 138.124 102.566 138.124 108.141Z" fill="#3F3D56"/>
<path d="M103.951 108.484C103.951 108.484 111.115 105.362 114.48 108.66C117.845 111.958 105.471 110.873 103.951 108.484Z" fill="#3F3D56"/>
<path d="M116.321 93.6765C113.914 89.6078 109.151 89.4182 109.151 89.4182C109.151 89.4182 104.509 88.8245 101.532 95.0213C98.7569 100.797 94.9268 106.374 100.915 107.726L101.997 104.359L102.667 107.977C103.52 108.038 104.375 108.053 105.229 108.02C111.643 107.813 117.751 108.081 117.554 105.779C117.292 102.719 118.638 97.5915 116.321 93.6765Z" fill="#2F2E41"/>
<path d="M117.519 137.034C117.679 136.983 117.835 136.929 117.989 136.869L117.954 136.82L117.519 136.796L114.703 136.645H114.7L114.227 136.62L111.986 136.499L107.107 136.234L104.493 136.093L104.361 136.085H104.328L102.488 135.985L101.888 135.953L101.317 138.045C102.468 138.287 103.633 138.461 104.804 138.564C104.851 138.571 104.898 138.576 104.945 138.578C105.812 138.653 106.694 138.691 107.58 138.691C109.234 138.693 110.884 138.559 112.516 138.291C113.051 138.207 113.581 138.107 114.105 137.991C114.2 137.972 114.294 137.95 114.386 137.929L114.43 137.921L114.448 137.915H114.451C115.154 137.753 115.848 137.567 116.533 137.356L117.519 137.034Z" fill="#2F2E41"/>
<path d="M105.145 102.513C105.145 102.513 106.23 109.678 104.06 110.547C101.889 111.415 108.401 115.107 108.401 115.107H112.092L114.48 110.113C114.48 110.113 112.309 106.204 113.612 102.513C114.914 98.8216 105.145 102.513 105.145 102.513Z" fill="#A0616A"/>
<path d="M117.519 137.034V111.632C117.519 111.632 117.243 109.023 115.057 109.701C114.833 109.773 114.616 109.863 114.408 109.972C114.046 110.167 113.7 110.392 113.375 110.645C113.251 110.739 113.124 110.842 112.992 110.953C112.981 110.961 112.97 110.972 112.959 110.98C108.834 114.454 106.883 112.067 106.448 111.632C106.288 111.475 105.872 111.029 105.404 110.526V110.523C105.201 110.307 104.991 110.08 104.791 109.858C104.172 109.19 103.626 108.593 103.626 108.593L101.455 110.328L101.985 123.489L102.109 126.593V126.596L102.15 127.561V127.566L102.488 135.985L102.539 137.256C103.274 137.489 104.02 137.686 104.774 137.845C104.996 137.891 105.231 137.937 105.472 137.98C107.353 138.321 109.721 138.497 111.224 137.688C111.527 137.525 111.846 137.392 112.175 137.291C112.829 137.094 113.509 137 114.192 137.012C114.338 137.015 114.481 137.02 114.624 137.029H114.627C115.271 137.074 115.91 137.184 116.532 137.356L117.519 137.034Z" fill="#3F3D56"/>
<path d="M107.107 136.234C106.616 136.864 106.069 137.449 105.472 137.98C105.288 138.148 105.104 138.31 104.918 138.47C104.88 138.502 104.842 138.532 104.804 138.564C102.425 138.349 100.079 137.856 97.8141 137.096C97.4789 136.983 97.1438 136.864 96.814 136.737C97.0227 136.208 97.1863 135.663 97.3032 135.106C98.798 128.099 94.4516 117.463 94.0731 115.757C93.9353 115.143 94.4434 114.292 95.257 113.386C97.0329 111.415 100.263 109.188 101.455 108.593C102.359 108.188 103.371 108.095 104.334 108.328H104.336C104.638 108.39 104.934 108.478 105.22 108.593V108.596C105.223 108.636 105.253 108.944 105.304 109.471C105.331 109.761 105.364 110.112 105.404 110.523V110.526C105.477 111.294 105.569 112.251 105.677 113.343V113.346C106.329 120.075 107.507 131.786 107.967 133.779C108.137 134.517 107.758 135.371 107.107 136.234Z" fill="#D0CDE1"/>
<path d="M117.519 137.034C117.679 136.983 117.835 136.929 117.989 136.869C118.959 136.52 119.91 136.12 120.838 135.671C119.449 131.611 123.555 118.701 124.731 114.706V114.7C124.869 114.232 124.966 113.886 125.009 113.694C125.444 111.74 118.822 109.896 118.606 109.461C118.438 109.131 115.749 108.798 114.481 108.66C114.089 108.617 113.832 108.593 113.832 108.593C113.497 108.852 113.24 109.599 113.04 110.683C113.021 110.769 113.005 110.861 112.992 110.953C112.848 111.791 112.737 112.805 112.648 113.943C112.156 120.15 112.324 129.959 111.875 133.998C111.784 134.832 111.822 135.676 111.986 136.499C112.035 136.766 112.099 137.03 112.175 137.291C112.27 137.63 112.383 137.964 112.516 138.291C113.051 138.207 113.581 138.107 114.105 137.991C114.2 137.972 114.294 137.95 114.386 137.929L114.43 137.921L114.448 137.915H114.451C115.154 137.753 115.848 137.567 116.533 137.356L117.519 137.034Z" fill="#D0CDE1"/>
<path d="M115.891 100.45C116.131 100.45 116.325 100.061 116.325 99.5816C116.325 99.1019 116.131 98.713 115.891 98.713C115.651 98.713 115.457 99.1019 115.457 99.5816C115.457 100.061 115.651 100.45 115.891 100.45Z" fill="#A0616A"/>
<path d="M103.083 100.45C103.322 100.45 103.517 100.061 103.517 99.5816C103.517 99.1019 103.322 98.713 103.083 98.713C102.843 98.713 102.648 99.1019 102.648 99.5816C102.648 100.061 102.843 100.45 103.083 100.45Z" fill="#A0616A"/>
<path d="M117.519 137.034C117.679 136.983 117.835 136.929 117.989 136.869C118.959 136.519 119.91 136.12 120.838 135.671C120.838 135.673 120.838 135.674 120.839 135.676C120.839 135.677 120.84 135.678 120.841 135.68C120.841 135.676 120.842 135.672 120.844 135.669C122.466 127.104 124.185 117.942 124.731 114.706V114.7C124.825 114.138 124.885 113.757 124.901 113.586C125.117 111.415 119.69 111.415 119.69 111.415L118.825 115.787L117.519 122.392L117.07 124.66L114.7 136.645L114.624 137.029L114.448 137.915H114.451C115.154 137.753 115.848 137.567 116.533 137.356L117.519 137.034Z" fill="#D0CDE1"/>
<path d="M104.804 138.564C102.425 138.349 100.079 137.856 97.8141 137.096C97.6438 136.439 97.4735 135.774 97.3032 135.106C95.1922 126.82 93.2055 118.052 93.2055 116.409C93.2055 115.049 94.1542 114.067 95.257 113.386C96.3067 112.773 97.4458 112.328 98.6331 112.067C98.6331 112.067 99.3251 114.946 100.32 119.099C100.852 121.316 101.469 123.895 102.109 126.593V126.596C102.855 129.726 103.636 133.014 104.361 136.085C104.477 136.582 104.592 137.073 104.707 137.556V137.567C104.708 137.57 104.709 137.574 104.71 137.577C104.731 137.667 104.753 137.756 104.774 137.845C104.823 138.056 104.872 138.264 104.918 138.47C104.928 138.505 104.937 138.54 104.945 138.578C104.898 138.576 104.851 138.571 104.804 138.564Z" fill="#D0CDE1"/>
<path opacity="0.2" d="M99.8262 118.472L104.711 137.578C104.711 137.578 102.431 120.861 99.8262 118.472Z" fill="black"/>
<path opacity="0.2" d="M112.516 138.291L114.105 137.983V137.991C113.581 138.107 113.051 138.207 112.516 138.291Z" fill="black"/>
<path opacity="0.2" d="M118.825 115.787L117.519 122.392L117.07 124.66L114.703 136.645H114.7L114.627 137.029H114.624L114.451 137.915H114.448L114.43 137.921L114.386 137.929L114.105 137.983C114.13 137.68 114.159 137.356 114.192 137.012C114.202 136.885 114.213 136.756 114.227 136.62C114.735 131.097 115.819 121.556 117.519 117.56C117.919 116.62 118.354 115.987 118.825 115.787Z" fill="black"/>
<path d="M109.487 105.987C112.964 105.987 115.783 103.168 115.783 99.6901C115.783 96.2124 112.964 93.3932 109.487 93.3932C106.01 93.3932 103.191 96.2124 103.191 99.6901C103.191 103.168 106.01 105.987 109.487 105.987Z" fill="#A0616A"/>
<path d="M115.257 93.2843L110.551 90.819L104.053 91.8274L102.708 97.7668L106.055 97.6381L106.99 95.4561V97.6021L108.535 97.5427L109.431 94.0686L109.991 97.7668L115.481 97.6549L115.257 93.2843Z" fill="#2F2E41"/>
<path d="M61.0882 69.4808C61.0882 74.331 59.9335 79.1116 57.7196 83.4268C55.5058 87.7421 52.2964 91.4681 48.357 94.2965C47.2812 95.073 46.1551 95.7775 44.9863 96.4053C38.5838 99.8331 31.1717 100.874 24.0731 99.3413C22.5617 99.017 21.0778 98.5759 19.6347 98.022C14.4344 96.0338 9.8762 92.6619 6.45274 88.2708C3.02929 83.8796 0.870769 78.6362 0.210448 73.1071C-0.449873 67.5781 0.413118 61.9736 2.70616 56.8995C4.9992 51.8254 8.63509 47.4746 13.2209 44.3172C17.8067 41.1598 23.168 39.316 28.7255 38.9849C34.283 38.6539 39.8252 39.8482 44.7533 42.4389C49.6813 45.0295 53.8078 48.918 56.6868 53.684C59.5658 58.4501 61.0877 63.9124 61.0882 69.4808Z" fill="#3F3D56"/>
<path d="M28.6177 67.4886C32.4974 67.4886 35.6425 64.3429 35.6425 60.4625C35.6425 56.5821 32.4974 53.4364 28.6177 53.4364C24.738 53.4364 21.5929 56.5821 21.5929 60.4625C21.5929 64.3429 24.738 67.4886 28.6177 67.4886Z" fill="#FFB8B8"/>
<path d="M25.8736 65.8419C25.8736 65.8419 26.7517 70.0136 26.7517 70.4528C26.7517 70.8919 30.9227 72.868 30.9227 72.868L34.6546 72.2093L35.9718 68.2571C35.9718 68.2571 33.7765 64.9636 33.7765 63.6462L25.8736 65.8419Z" fill="#FFB8B8"/>
<path d="M30.5441 100.031C28.3687 100.032 26.1994 99.8008 24.0731 99.3413C23.9677 97.192 23.8974 94.8237 23.8974 94.8237L21.7566 88.611L17.3128 75.7233L26.4625 68.7373C26.4625 68.7373 28.7277 72.4276 32.0199 71.33C32.9355 71.0521 33.74 70.4921 34.3186 69.7299C34.8971 68.9677 35.2203 68.0422 35.2419 67.0855L46.0702 70.892L44.1997 86.0724L44.0943 86.9213L44.9863 96.4053C40.5473 98.7928 35.5843 100.039 30.5441 100.031Z" fill="#D0CDE1"/>
<path d="M22.5258 54.8018C22.5258 54.8018 24.7562 49.9684 29.031 51.0838C33.3058 52.1992 35.722 53.8723 35.9079 55.5454C36.0937 57.2184 35.815 59.7281 35.815 59.7281C35.815 59.7281 35.3503 56.2889 32.3765 57.0325C29.4027 57.7761 24.7562 57.2184 24.7562 57.2184L24.0127 63.9107C24.0127 63.9107 23.1763 62.7024 22.247 63.446C21.3177 64.1896 19.552 56.2889 22.5258 54.8018Z" fill="#2F2E41"/>
<path d="M13.2637 94.6723L14.6774 82.7497C14.4584 78.1375 17.3128 75.7233 17.3128 75.7233H20.6051L23.0189 83.8474L21.7566 88.611L20.1672 94.6047L19.7266 95.2644C19.7266 95.2644 20.1672 95.9214 19.9456 96.143C19.7266 96.362 19.5077 97.2407 19.5077 97.2407C19.5077 97.2407 19.5536 97.5543 19.6347 98.022C17.3854 97.1629 15.2466 96.0384 13.2637 94.6723Z" fill="#D0CDE1"/>
<path d="M53.7549 89.3382C52.1614 91.202 50.349 92.8668 48.357 94.2965C48.057 93.7641 47.8056 93.2059 47.6055 92.6284L44.1997 86.0724L41.8995 81.6494L42.3374 70.2324L46.0702 70.892C46.0702 70.892 48.2651 73.0873 49.1436 75.7233L50.9005 83.6257L53.7522 89.3355L53.7549 89.3382Z" fill="#D0CDE1"/>
<path d="M210.295 51.9078C210.297 57.1526 208.949 62.3096 206.38 66.8816C203.81 71.4536 200.107 75.2864 195.626 78.0104C195.085 78.3403 194.533 78.6512 193.971 78.9486C193.133 79.3919 192.271 79.7975 191.39 80.157V80.1598C191.109 80.276 190.828 80.3869 190.544 80.4923C190.411 80.5437 190.276 80.595 190.141 80.6437C186.809 81.845 183.293 82.4588 179.751 82.4578C177.425 82.4595 175.106 82.1965 172.839 81.6737C171.662 81.4011 170.502 81.058 169.366 80.6464H169.363C167.921 80.1239 166.52 79.4931 165.173 78.7593C164.822 78.5701 164.476 78.3727 164.135 78.1673C163.897 78.0267 163.665 77.8834 163.433 77.7374C158.943 74.9004 155.271 70.9418 152.778 66.2523C150.286 61.5628 149.058 56.3043 149.217 50.9955C149.376 45.6867 150.916 40.511 153.684 35.979C156.453 31.447 160.356 27.7153 165.006 25.1519C169.657 22.5885 174.896 21.282 180.205 21.3613C185.515 21.4406 190.712 22.903 195.284 25.6042C199.856 28.3053 203.645 32.152 206.278 36.7646C208.91 41.3773 210.294 46.5967 210.295 51.9078Z" fill="#3F3D56"/>
<path d="M176.23 47.4481C176.23 47.4481 176.411 52.15 175.326 53.235C174.241 54.3201 180.75 58.1178 180.75 58.1178L184.547 52.15C184.547 52.15 183.1 49.6182 183.462 47.4481L176.23 47.4481Z" fill="#A0616A"/>
<path d="M179.394 50.0703C182.989 50.0703 185.903 47.1555 185.903 43.56C185.903 39.9644 182.989 37.0496 179.394 37.0496C175.799 37.0496 172.885 39.9644 172.885 43.56C172.885 47.1555 175.799 50.0703 179.394 50.0703Z" fill="#A0616A"/>
<path d="M190.425 78.9837C190.465 79.4866 190.505 79.9894 190.544 80.4923C190.411 80.5437 190.276 80.595 190.141 80.6437C186.809 81.845 183.293 82.4588 179.751 82.4578C177.425 82.4595 175.106 82.1965 172.839 81.6737C171.662 81.4011 170.502 81.058 169.366 80.6464L169.363 80.6707C169.36 80.6628 169.36 80.6543 169.363 80.6464C169.404 80.0949 169.508 79.5499 169.671 79.0216V79.0189C169.823 78.4619 170.028 77.8185 170.263 77.1075C170.517 76.3478 170.533 74.6878 170.479 73.1279C170.474 73.0089 170.471 72.8872 170.466 72.771C170.444 72.2654 170.417 71.7815 170.39 71.3516C170.328 70.3811 170.263 69.6917 170.263 69.6917L166.284 59.0208L175.893 52.0025C176.461 53.8436 177.677 53.7787 177.677 53.7787C182.835 54.1328 183.784 50.5696 183.813 50.4533V50.4506L193.044 56.4903L189.249 65.7121C189.249 65.7121 189.403 67.2747 189.622 69.6592C189.655 70.0107 189.687 70.3811 189.725 70.7677C189.936 73.1089 190.192 76.026 190.425 78.9837Z" fill="#D0CDE1"/>
<path d="M170.715 71.4084L170.525 72.7818L170.479 73.1279L169.677 78.9945L169.671 79.0189V79.0216L169.366 80.6464L169.363 80.6707C169.36 80.6628 169.36 80.6543 169.363 80.6464C167.921 80.1239 166.52 79.4931 165.173 78.7593C164.822 78.5701 164.476 78.3727 164.135 78.1673C164.36 77.4674 164.625 76.7813 164.93 76.1126L165.481 71.8194L165.652 70.5054L170.39 71.3516L170.715 71.4084Z" fill="#A0616A"/>
<path d="M168.907 58.7507L166.285 59.022C166.285 59.022 164.568 71.7713 165.11 71.7713C165.653 71.7713 171.8 73.2181 171.981 72.8564C172.162 72.4947 168.907 58.7507 168.907 58.7507Z" fill="#D0CDE1"/>
<path d="M174.372 36.8864L173.198 36.4597C173.198 36.4597 175.652 34.0058 179.065 34.2192L178.105 33.259C178.105 33.259 180.452 32.4055 182.585 34.6459C183.707 35.8237 185.004 37.2081 185.813 38.7676H187.07L186.545 39.8168L188.381 40.8659L186.497 40.6774C186.675 41.5832 186.614 42.5199 186.319 43.3945L185.892 44.5681C185.892 44.5681 184.185 41.154 184.185 40.7273V41.7942C184.185 41.7942 183.012 40.834 183.012 40.1938L182.372 40.9407L182.052 39.767L178.105 40.9407L178.745 39.9804L176.292 40.3005L177.252 39.1269C177.252 39.1269 174.478 40.5139 174.372 41.6875C174.265 42.8611 172.878 44.3547 172.878 44.3547L172.238 43.2878C172.238 43.2878 171.278 38.4868 174.372 36.8864Z" fill="#2F2E41"/>
<path d="M195.626 78.0104C195.085 78.3403 194.533 78.6512 193.971 78.9486C193.133 79.3919 192.271 79.7975 191.39 80.157V80.1597C191.109 80.276 190.828 80.3868 190.544 80.4923C190.411 80.5437 190.276 80.595 190.141 80.6437L190.425 78.9837L189.138 70.8055L188.976 69.7809L189.622 69.6592L195.666 68.5156V75.9314C195.666 75.9314 195.682 76.7344 195.626 78.0104Z" fill="#A0616A"/>
<path d="M189.519 56.0381L193.045 56.4902C193.045 56.4902 197.294 69.4204 196.209 69.9629C195.124 70.5054 188.073 70.8671 188.073 70.8671L189.519 56.0381Z" fill="#D0CDE1"/>
<path d="M50.2761 55.1521C55.2025 55.1521 59.1961 51.1577 59.1961 46.2304C59.1961 41.3031 55.2025 37.3088 50.2761 37.3088C45.3498 37.3088 41.3562 41.3031 41.3562 46.2304C41.3562 51.1577 45.3498 55.1521 50.2761 55.1521Z" fill="#3282FB"/>
<path d="M128.664 94.3533C133.59 94.3533 137.584 90.3589 137.584 85.4316C137.584 80.5043 133.59 76.51 128.664 76.51C123.737 76.51 119.744 80.5043 119.744 85.4316C119.744 90.3589 123.737 94.3533 128.664 94.3533Z" fill="#3282FB"/>
<path d="M201.915 39.2012C206.842 39.2012 210.835 35.2069 210.835 30.2796C210.835 25.3523 206.842 21.3579 201.915 21.3579C196.989 21.3579 192.995 25.3523 192.995 30.2796C192.995 35.2069 196.989 39.2012 201.915 39.2012Z" fill="#3282FB"/>
<path d="M233.529 26.2116C237.723 26.2116 241.124 22.8106 241.124 18.6153C241.124 14.42 237.723 11.019 233.529 11.019C229.334 11.019 225.934 14.42 225.934 18.6153C225.934 22.8106 229.334 26.2116 233.529 26.2116Z" fill="#FFB8B8"/>
<path d="M239.314 8.90257C238.689 8.063 237.879 7.37876 236.947 6.90294C236.015 6.42713 234.985 6.17254 233.939 6.15892H233.684C228.767 6.15892 224.78 10.6093 224.78 16.0992V16.0992H226.428L226.694 14.0734L227.084 16.0992H236.856L237.675 14.3854L237.47 16.0992H239.393C240.29 20.5552 239.001 25.0112 235.526 29.4672H238.801L240.438 26.0395L240.029 29.4672H246.272L247.5 21.5835C247.5 15.6793 244.07 10.6727 239.314 8.90257Z" fill="#2F2E41"/>
<path d="M241.109 9.73272C243.796 9.73272 245.975 7.55398 245.975 4.86636C245.975 2.17874 243.796 0 241.109 0C238.422 0 236.244 2.17874 236.244 4.86636C236.244 7.55398 238.422 9.73272 241.109 9.73272Z" fill="#2F2E41"/>
</g>
<defs>
<clipPath id="clip0">
<rect width="300" height="176" fill="white"/>
</clipPath>
</defs>
</svg>
